Coordinates
version=1
nRows=11
nColumns=36
inDegrees=yes

Units are S.I. units (second, meters, Newtons, ...)
If the header above contains a line with 'inDegrees', this indicates whether rotational values are in degrees (yes) or radians (no).

endheader
time	pelvis_tilt	pelvis_list	pelvis_rotation	pelvis_tx	pelvis_ty	pelvis_tz	hip_flexion_r	hip_adduction_r	hip_rotation_r	knee_angle_r	knee_angle_r_beta	ankle_angle_r	subtalar_angle_r	mtp_angle_r	hip_flexion_l	hip_adduction_l	hip_rotation_l	knee_angle_l	knee_angle_l_beta	ankle_angle_l	subtalar_angle_l	mtp_angle_l	lumbar_extension	lumbar_bending	lumbar_rotation	arm_flex_r	arm_add_r	arm_rot_r	elbow_flex_r	pro_sup_r	arm_flex_l	arm_add_l	arm_rot_l	elbow_flex_l	pro_sup_l
     30.25000000	      5.16191176	     -3.95529466	     -1.25955363	      0.56741649	      1.01731887	      0.70700010	     14.61290110	      4.03858354	      0.05034902	     11.86834087	      0.20714162	      0.01969220	     -4.13010431	     -7.49999987	    -13.38200382	     -4.73079921	     -2.54712939	     27.07227233	      0.47250029	     12.55427586	     -7.42735351	     -7.49999987	    -14.98898040	      4.12981287	      4.61864169	     -2.28415657	    -14.22087326	     -1.15044498	     20.68373938	     89.97594996	     16.16404075	    -13.01686571	     18.00676692	     26.77418424	     87.68517793
     30.26666670	      4.92023493	     -4.61843297	     -1.18205658	      0.57105838	      1.01793711	      0.71024668	     14.54232372	      4.95815642	      0.61565153	     13.22337594	      0.23079145	      0.73925806	     -5.21799274	     -7.49999987	    -11.77922638	     -6.00396312	     -3.15937006	     31.16260092	      0.54388999	     10.83306492	     -7.91048051	     -7.49999987	    -14.78698728	      5.00292464	      4.68081300	     -1.79621614	    -14.67758173	     -0.72257127	     21.19185680	     90.18679126	     15.41649457	    -12.88959986	     18.25270562	     26.38822065	     87.98758267
     30.28333330	      4.88370009	     -5.39609515	     -1.06559358	      0.57469905	      1.01871759	      0.71384050	     14.11350492	      6.00235345	      1.06626778	     14.45577592	      0.25230089	      1.82938491	     -6.09166573	     -7.49999987	    -10.28290694	     -7.43137157	     -3.65191697	     35.34004751	      0.61680019	      8.93416448	     -8.38143003	     -7.49999987	    -14.71634132	      6.00533637	      4.72994953	     -1.16020592	    -15.20821292	     -0.06408552	     21.62119550	     90.53567380	     14.67290518	    -12.68342460	     18.45276511	     25.87628564	     88.36001158
     30.30000000	      5.23920408	     -6.16371496	     -1.10910566	      0.57778527	      1.01940180	      0.71659806	     13.12917087	      7.08602724	      1.61622334	     15.57739773	      0.27187688	      3.30119710	     -6.60304104	     -7.49999987	     -9.26385664	     -8.79557213	     -4.22624987	     39.26403994	      0.68528677	      7.04448810	     -8.57097121	     -7.49999987	    -15.21674961	      6.89308876	      5.15185927	     -0.56590052	    -15.59856051	      0.00528573	     22.04239919	     90.45072276	     13.93085411	    -12.48678373	     18.53993882	     25.67691647	     88.30586234
     30.31666670	      5.17713273	     -7.03319292	     -0.87405174	      0.57990130	      1.01911808	      0.71690085	     12.39705354	      8.20909146	      1.91796212	     16.39953880	      0.28622595	      4.47754247	     -7.30596193	     -7.49999987	     -7.43493772	    -10.22739089	     -4.15324564	     43.48747060	      0.75899955	      5.63710881	     -9.13291170	     -7.49999987	    -14.94578496	      8.08887482	      4.97449398	     -0.12583433	    -16.19127817	      0.96085881	     22.68864822	     90.89889599	     13.05088629	    -12.02092184	     18.53822891	     24.54263324	     88.64889651
     30.33333330	      5.58941735	     -7.77207656	     -0.75992589	      0.58052817	      1.01958343	      0.71710708	     10.97467260	      9.21677109	      2.35057792	     16.89091516	      0.29480208	      5.77444944	     -7.70070646	     -7.49999987	     -5.90701013	    -11.47004068	     -4.18112369	     47.75718497	      0.83352012	      4.21857598	     -9.72427522	     -7.49999987	    -15.38797073	      9.02872090	      5.29290765	      0.28488114	    -16.65431254	      1.19914318	     23.11992511	     90.88565949	     12.28674963	    -11.58403870	     18.60874766	     24.17813715	     88.66053833
     30.35000000	      5.69540574	     -8.35356186	     -0.46610673	      0.57967493	      1.01991700	      0.71819722	      9.65070246	     10.01017295	      2.50022734	     16.84538090	      0.29400736	      6.85582779	     -7.89591874	     -7.49999987	     -3.58231695	    -12.50463541	     -3.69682198	     52.27166009	      0.91231257	      3.01654059	    -10.70733901	     -7.49999987	    -15.41613325	      9.82792562	      5.30050493	      0.50214165	    -17.17002928	      1.99324339	     24.06144607	     91.09066856	     11.63466702	    -11.03203796	     18.67829752	     23.03367341	     88.92035216
     30.36666670	      6.11567074	     -8.72882419	     -0.23824416	      0.57549849	      1.02244500	      0.71924679	      7.76837650	     10.57638263	      2.68359560	     16.29635971	      0.28442513	      7.68208431	     -7.87251369	     -7.49999987	     -1.36688461	    -13.19231873	     -3.08999464	     56.59874043	      0.98783437	      2.37251013	    -11.75933968	     -7.49999987	    -15.98409095	     10.36416603	      5.58597893	      0.85434413	    -17.69687588	      2.64417802	     25.04818993	     90.01755416	     11.10286560	    -10.54956067	     18.62955070	     22.46886415	     87.97196044
     30.38333330	      6.34324633	     -8.81964463	     -0.16278893	      0.56951130	      1.02768689	      0.71933092	      5.95768954	     10.79644335	      2.79522595	     15.47667846	      0.27011900	      8.47956428	     -7.18765645	     -7.49999987	      1.24919740	    -13.44951477	     -2.39097510	     60.49242555	      1.05579200	      2.06225639	    -12.54726506	     -7.49999987	    -16.37268156	     10.56271571	      6.18711849	      1.23590186	    -18.38228031	      3.91672001	     25.98812515	     89.21411646	     11.13632043	    -10.00564017	     19.57781526	     21.09244383	     88.06352220
     30.40000000	      6.77681038	     -8.58032368	      0.04116177	      0.56472780	      1.03470919	      0.71892782	      3.79990104	     10.62351619	      2.77519516	     14.31552439	      0.24985303	      8.82246706	     -6.51362259	     -7.49999987	      3.67849598	    -13.19366589	     -1.47635290	     63.55293332	      1.10920794	      1.67648857	    -12.93813085	     -7.49999987	    -17.13423465	     10.43360569	      6.51885093	      2.00088115	    -18.86633002	      4.47284512	     26.95326025	     88.75400412	     11.24347269	     -9.73695590	     20.49704025	     20.29854532	     88.96922080
     30.41666670	      7.37023202	     -8.06205449	      0.10701894	      0.56226130	      1.04043133	      0.71940865	      1.45831203	     10.15680085	      3.01986133	     13.03017308	      0.22741942	      8.89822106	     -5.99224632	     -7.49999987	      5.63463975	    -12.50690295	     -0.75437780	     65.59267273	      1.14480810	      1.31041210	    -12.80255848	     -7.49999987	    -18.25879987	      9.93545871	      6.99296521	      2.73791429	    -19.34881472	      4.90139066	     28.32471209	     87.57016371	     11.37290432	     -9.70127600	     21.57263635	     20.14327080	     89.30384747
